<svg width="329" height="108" viewBox="0 0 329 108" fill="#ffffff" xmlns="http://www.w3.org/2000/svg">
<g clip-path="url(#clip0_4_14)">
<path d="M15.424 58.104C15.424 58.7867 13.3973 59.128 9.344 59.128C5.248 59.128 3.2 58.808 3.2 58.168V16.44C3.2 14.9467 3.98933 14.2 5.568 14.2H17.792C29.0133 14.2 34.624 18.5733 34.624 27.32C34.624 29.9653 34.112 32.376 33.088 34.552C32.064 36.6853 30.6133 38.392 28.736 39.672L36.8 53.112C36.4587 54.136 35.3493 55.3093 33.472 56.632C30.912 58.4667 28.8 59.384 27.136 59.384C25.472 59.384 24.2347 58.7867 23.424 57.592L17.408 43.576H15.424V58.104ZM15.424 25.528V35.128H15.744C19.7973 35.128 21.824 33.4427 21.824 30.072C21.824 28.536 21.4187 27.4053 20.608 26.68C19.84 25.912 18.56 25.528 16.768 25.528H15.424ZM61.75 31.992C62.5607 31.992 62.966 33.4853 62.966 36.472C62.966 37.368 62.8593 38.4347 62.646 39.672C62.4753 40.8667 62.134 41.464 61.622 41.464H53.494V47.864H65.27C65.9953 47.864 66.486 48.8027 66.742 50.68C66.87 51.4907 66.934 52.3653 66.934 53.304C66.934 54.2 66.806 55.3733 66.55 56.824C66.294 58.2747 65.8673 59 65.27 59H43.382C41.7607 59 40.95 58.3387 40.95 57.016V15.864C40.95 14.7547 41.4407 14.2 42.422 14.2H65.334C66.23 14.2 66.678 16.0987 66.678 19.896C66.678 23.6507 66.23 25.528 65.334 25.528H53.494V31.992H61.75ZM107.585 57.592C107.585 58.488 105.579 58.936 101.569 58.936C97.5578 58.936 95.3818 58.616 95.0405 57.976L84.3525 38.008V57.912C84.3525 58.68 82.3685 59.064 78.4005 59.064C74.4752 59.064 72.5125 58.68 72.5125 57.912V15.096C72.5125 14.456 74.1978 14.136 77.5685 14.136C78.8912 14.136 80.4272 14.264 82.1765 14.52C83.9685 14.7333 85.0565 15.16 85.4405 15.8L95.6805 35.512V15.416C95.6805 14.6053 97.6645 14.2 101.632 14.2C105.601 14.2 107.585 14.6053 107.585 15.416V57.592ZM133.021 59.64C127.047 59.64 122.162 57.6773 118.365 53.752C114.61 49.8267 112.733 44.1093 112.733 36.6C112.733 29.048 114.631 23.3307 118.429 19.448C122.269 15.5653 127.197 13.624 133.213 13.624C139.271 13.624 144.157 15.544 147.869 19.384C151.581 23.1813 153.437 28.9627 153.437 36.728C153.437 44.4507 151.538 50.2107 147.741 54.008C143.943 57.7627 139.037 59.64 133.021 59.64ZM133.085 25.912C131.037 25.912 129.309 26.8507 127.901 28.728C126.535 30.6053 125.853 33.2507 125.853 36.664C125.853 40.0347 126.514 42.6373 127.837 44.472C129.159 46.264 130.887 47.16 133.021 47.16C135.197 47.16 136.946 46.2427 138.269 44.408C139.634 42.5733 140.317 39.9493 140.317 36.536C140.317 33.1227 139.613 30.4987 138.205 28.664C136.839 26.8293 135.133 25.912 133.085 25.912ZM156.719 14.84C156.591 14.3707 158.746 14.136 163.183 14.136C168.09 14.136 170.607 14.5413 170.735 15.352L173.871 42.296L180.655 15.032C180.868 14.392 182.532 14.072 185.647 14.072C188.762 14.072 190.426 14.3707 190.639 14.968L197.295 42.424L201.007 15.224C201.092 14.7547 202.074 14.4347 203.951 14.264C205.828 14.0933 207.343 14.008 208.495 14.008C212.975 14.008 215.151 14.3067 215.023 14.904L207.279 57.336C207.108 57.976 205.892 58.4453 203.631 58.744C201.37 59.0427 199.535 59.192 198.127 59.192C192.836 59.192 190.063 58.5947 189.807 57.4L185.455 39.8L180.719 57.336C180.548 58.104 179.055 58.6587 176.239 59C174.788 59.128 173.338 59.192 171.887 59.192L167.791 59C164.975 58.7013 163.482 58.168 163.311 57.4L156.719 14.84ZM254.647 57.592C254.647 58.488 252.642 58.936 248.631 58.936C244.62 58.936 242.444 58.616 242.103 57.976L231.415 38.008V57.912C231.415 58.68 229.431 59.064 225.463 59.064C221.538 59.064 219.575 58.68 219.575 57.912V15.096C219.575 14.456 221.26 14.136 224.631 14.136C225.954 14.136 227.49 14.264 229.239 14.52C231.031 14.7333 232.119 15.16 232.503 15.8L242.743 35.512V15.416C242.743 14.6053 244.727 14.2 248.695 14.2C252.663 14.2 254.647 14.6053 254.647 15.416V57.592ZM281.875 31.992C282.686 31.992 283.091 33.4853 283.091 36.472C283.091 37.368 282.984 38.4347 282.771 39.672C282.6 40.8667 282.259 41.464 281.747 41.464H273.619V47.864H285.395C286.12 47.864 286.611 48.8027 286.867 50.68C286.995 51.4907 287.059 52.3653 287.059 53.304C287.059 54.2 286.931 55.3733 286.675 56.824C286.419 58.2747 285.992 59 285.395 59H263.507C261.886 59 261.075 58.3387 261.075 57.016V15.864C261.075 14.7547 261.566 14.2 262.547 14.2H285.459C286.355 14.2 286.803 16.0987 286.803 19.896C286.803 23.6507 286.355 25.528 285.459 25.528H273.619V31.992H281.875ZM292.638 56.056V17.656C292.638 16.5893 292.894 15.7573 293.406 15.16C293.96 14.52 294.664 14.2 295.518 14.2H306.206C312.99 14.2 318.131 15.9067 321.63 19.32C325.171 22.7333 326.942 28.1093 326.942 35.448C326.942 51.1493 320.243 59 306.846 59H295.902C293.726 59 292.638 58.0187 292.638 56.056ZM304.926 26.36V45.496C304.926 46.392 304.99 46.968 305.118 47.224C305.246 47.4373 305.63 47.544 306.27 47.544C308.616 47.544 310.387 46.6693 311.582 44.92C312.819 43.1707 313.438 40.2693 313.438 36.216C313.438 32.12 312.798 29.4533 311.518 28.216C310.28 26.9787 308.296 26.36 305.566 26.36H304.926Z" fill="#ffffff"/>
<path d="M42.224 107V71H50.384C52.96 71 55.024 71.816 56.576 73.448C58.128 75.064 58.904 77.208 58.904 79.88V98.12C58.904 100.776 58.128 102.92 56.576 104.552C55.024 106.184 52.96 107 50.384 107H42.224ZM45.824 103.4H50.384C51.872 103.4 53.064 102.92 53.96 101.96C54.856 100.984 55.304 99.704 55.304 98.12V79.88C55.304 78.296 54.856 77.024 53.96 76.064C53.064 75.088 51.872 74.6 50.384 74.6H45.824V103.4ZM81.1659 71V74.6H70.2459V87.2H79.8699V90.8H70.2459V103.4H81.1659V107H66.6459V71H81.1659ZM87.4115 107V71H90.6035L101.86 100.328L100.852 100.448V71H104.332V107H101.164L89.8835 77.648L90.8915 77.528V107H87.4115ZM115.651 107V74.6H109.459V71H125.419V74.6H119.251V107H115.651ZM126.999 107L134.823 71H138.663L146.463 107H142.743L141.207 99.8H132.255L130.719 107H126.999ZM132.927 96.2H140.535L136.455 76.16H137.031L132.927 96.2ZM155.605 71V103.4H165.565V107H152.005V71H155.605ZM197.533 97.688V98.888C197.533 101.544 196.757 103.688 195.205 105.32C193.653 106.952 191.589 107.768 189.013 107.768C186.453 107.768 184.389 106.952 182.821 105.32C181.269 103.688 180.493 101.544 180.493 98.888V79.112C180.493 76.44 181.269 74.296 182.821 72.68C184.389 71.048 186.453 70.232 189.013 70.232C191.589 70.232 193.653 71.048 195.205 72.68C196.757 74.296 197.533 76.44 197.533 79.112V80.312H193.933V79.112C193.933 77.528 193.485 76.256 192.589 75.296C191.693 74.32 190.501 73.832 189.013 73.832C187.525 73.832 186.333 74.32 185.437 75.296C184.541 76.256 184.093 77.528 184.093 79.112V98.888C184.093 100.472 184.541 101.752 185.437 102.728C186.333 103.688 187.525 104.168 189.013 104.168C190.501 104.168 191.693 103.688 192.589 102.728C193.485 101.752 193.933 100.472 193.933 98.888V97.688H197.533ZM207.543 71V103.4H217.503V107H203.943V71H207.543ZM226.293 107H222.693V71H226.293V107ZM234.74 107V71H237.932L249.188 100.328L248.18 100.448V71H251.66V107H248.492L237.212 77.648L238.22 77.528V107H234.74ZM263.699 107H260.099V71H263.699V107ZM288.658 97.688V98.888C288.658 101.544 287.882 103.688 286.33 105.32C284.778 106.952 282.714 107.768 280.138 107.768C277.578 107.768 275.514 106.952 273.946 105.32C272.394 103.688 271.618 101.544 271.618 98.888V79.112C271.618 76.44 272.394 74.296 273.946 72.68C275.514 71.048 277.578 70.232 280.138 70.232C282.714 70.232 284.778 71.048 286.33 72.68C287.882 74.296 288.658 76.44 288.658 79.112V80.312H285.058V79.112C285.058 77.528 284.61 76.256 283.714 75.296C282.818 74.32 281.626 73.832 280.138 73.832C278.65 73.832 277.458 74.32 276.562 75.296C275.666 76.256 275.218 77.528 275.218 79.112V98.888C275.218 100.472 275.666 101.752 276.562 102.728C277.458 103.688 278.65 104.168 280.138 104.168C281.626 104.168 282.818 103.688 283.714 102.728C284.61 101.752 285.058 100.472 285.058 98.888V97.688H288.658Z" fill="#ffffff"/>
</g>
<defs>
<clipPath id="clip0_4_14">
<rect width="329" height="108" fill="white"/>
</clipPath>
</defs>
</svg>
